{"accessors" : [{"bufferView" : 0, "byteOffset" : 0, "componentType" : 5123, "count" : 246, "type" : "SCALAR", "max" : [233], "min" : [0]}, {"bufferView" : 1, "byteOffset" : 0, "componentType" : 5126, "count" : 234, "type" : "VEC3", "max" : [0.17983689904212952, 0.017999988049268723, 0.3164629638195038], "min" : [-0.18016313016414642, -0.010000014677643776, -0.19476725161075592], "name" : "POSITION"}, {"bufferView" : 1, "byteOffset" : 12, "componentType" : 5126, "count" : 234, "type" : "VEC2", "max" : [0.8852893114089966, 0.9618747234344482], "min" : [0.36078575253486633, 0.005957603454589844], "name" : "TEXCOORD_0"}, {"bufferView" : 1, "byteOffset" : 20, "componentType" : 5126, "count" : 234, "type" : "VEC3", "max" : [1.0000044107437134, 1.0000044107437134, 0.9912323951721191], "min" : [-1.0000044107437134, -1.0000044107437134, -1.0000044107437134], "name" : "NORMAL"}], "asset" : {"generator" : "Aspose.3D 24.1.0", "version" : "2.0"}, "buffers" : [{"uri" : "data:application/octet-stream;base64,", "byteLength" : 8372}], "bufferViews" : [{"buffer" : 0, "byteOffset" : 0, "byteLength" : 492, "target" : 34963}, {"buffer" : 0, "byteOffset" : 496, "byteLength" : 7872, "byteStride" : 32, "target" : 34962}], "meshes" : [{"primitives" : [{"attributes" : {"POSITION" : 1, "TEXCOORD_0" : 2, "NORMAL" : 3}, "indices" : 0, "mode" : 4}], "name" : ""}], "nodes" : [{"mesh" : 0, "name" : "Wall3_Part1_0"}], "scene" : 0, "scenes" : [{"nodes" : [0]}]}