{"accessors" : [{"bufferView" : 0, "byteOffset" : 0, "componentType" : 5123, "count" : 324, "type" : "SCALAR", "max" : [302], "min" : [0]}, {"bufferView" : 1, "byteOffset" : 0, "componentType" : 5126, "count" : 303, "type" : "VEC3", "max" : [0.16489888727664948, 0.2470739483833313, 0.013066817075014114], "min" : [-0.19510112702846527, -0.30890411138534546, -0.014933443628251553], "name" : "POSITION"}, {"bufferView" : 1, "byteOffset" : 12, "componentType" : 5126, "count" : 303, "type" : "VEC2", "max" : [0.9558914303779602, 0.7893815040588379], "min" : [0.4041083753108978, 0.004133939743041992], "name" : "TEXCOORD_0"}, {"bufferView" : 1, "byteOffset" : 20, "componentType" : 5126, "count" : 303, "type" : "VEC3", "max" : [1.0000044107437134, 1.0000044107437134, 1.0000044107437134], "min" : [-1.0000044107437134, -0.9922829270362854, -1.0000044107437134], "name" : "NORMAL"}], "asset" : {"generator" : "Aspose.3D 24.1.0", "version" : "2.0"}, "buffers" : [{"uri" : "data:application/octet-stream;base64,", "byteLength" : 11024}], "bufferViews" : [{"buffer" : 0, "byteOffset" : 0, "byteLength" : 648, "target" : 34963}, {"buffer" : 0, "byteOffset" : 652, "byteLength" : 10368, "byteStride" : 32, "target" : 34962}], "meshes" : [{"primitives" : [{"attributes" : {"POSITION" : 1, "TEXCOORD_0" : 2, "NORMAL" : 3}, "indices" : 0, "mode" : 4}], "name" : ""}], "nodes" : [{"mesh" : 0, "name" : "Wall1_Part2_0"}], "scene" : 0, "scenes" : [{"nodes" : [0]}]}