{"accessors" : [{"bufferView" : 0, "byteOffset" : 0, "componentType" : 5123, "count" : 171, "type" : "SCALAR", "max" : [160], "min" : [0]}, {"bufferView" : 1, "byteOffset" : 0, "componentType" : 5126, "count" : 161, "type" : "VEC3", "max" : [0.10173055529594421, 0.2684824764728546, 0.010000023059546947], "min" : [-0.1105855405330658, -0.247286856174469, -0.01800002157688141], "name" : "POSITION"}, {"bufferView" : 1, "byteOffset" : 12, "componentType" : 5126, "count" : 161, "type" : "VEC2", "max" : [0.9558914303779602, 0.961219847202301], "min" : [0.3691243529319763, 0.005517303943634033], "name" : "TEXCOORD_0"}, {"bufferView" : 1, "byteOffset" : 20, "componentType" : 5126, "count" : 161, "type" : "VEC3", "max" : [1.0000044107437134, 0.9995846152305603, 1.0000044107437134], "min" : [-1.0000044107437134, -1.0000044107437134, -1.0000044107437134], "name" : "NORMAL"}], "asset" : {"generator" : "Aspose.3D 24.1.0", "version" : "2.0"}, "buffers" : [{"uri" : "data:application/octet-stream;base64,", "byteLength" : 5824}], "bufferViews" : [{"buffer" : 0, "byteOffset" : 0, "byteLength" : 344, "target" : 34963}, {"buffer" : 0, "byteOffset" : 348, "byteLength" : 5472, "byteStride" : 32, "target" : 34962}], "meshes" : [{"primitives" : [{"attributes" : {"POSITION" : 1, "TEXCOORD_0" : 2, "NORMAL" : 3}, "indices" : 0, "mode" : 4}], "name" : ""}], "nodes" : [{"mesh" : 0, "name" : "Wall2_Part1_0"}], "scene" : 0, "scenes" : [{"nodes" : [0]}]}