{"accessors" : [{"bufferView" : 0, "byteOffset" : 0, "componentType" : 5123, "count" : 222, "type" : "SCALAR", "max" : [209], "min" : [0]}, {"bufferView" : 1, "byteOffset" : 0, "componentType" : 5126, "count" : 210, "type" : "VEC3", "max" : [0.1839708834886551, 0.0326610803604126, 0.018000183627009392], "min" : [-0.17602914571762085, -0.11938708275556564, -0.009999971836805344], "name" : "POSITION"}, {"bufferView" : 1, "byteOffset" : 12, "componentType" : 5126, "count" : 210, "type" : "VEC2", "max" : [0.9558915495872498, 0.41721928119659424], "min" : [0.3572300970554352, 0.004133939743041992], "name" : "TEXCOORD_0"}, {"bufferView" : 1, "byteOffset" : 20, "componentType" : 5126, "count" : 210, "type" : "VEC3", "max" : [1.0000044107437134, 1.0000044107437134, 1.0000044107437134], "min" : [-1.0000044107437134, -1.0000044107437134, -1.0000044107437134], "name" : "NORMAL"}], "asset" : {"generator" : "Aspose.3D 24.1.0", "version" : "2.0"}, "buffers" : [{"uri" : "data:application/octet-stream;base64,", "byteLength" : 7556}], "bufferViews" : [{"buffer" : 0, "byteOffset" : 0, "byteLength" : 444, "target" : 34963}, {"buffer" : 0, "byteOffset" : 448, "byteLength" : 7104, "byteStride" : 32, "target" : 34962}], "meshes" : [{"primitives" : [{"attributes" : {"POSITION" : 1, "TEXCOORD_0" : 2, "NORMAL" : 3}, "indices" : 0, "mode" : 4}], "name" : ""}], "nodes" : [{"mesh" : 0, "name" : "Wall1_Part1_0"}], "scene" : 0, "scenes" : [{"nodes" : [0]}]}