{"accessors" : [{"bufferView" : 0, "byteOffset" : 0, "componentType" : 5123, "count" : 264, "type" : "SCALAR", "max" : [250], "min" : [0]}, {"bufferView" : 1, "byteOffset" : 0, "componentType" : 5126, "count" : 251, "type" : "VEC3", "max" : [0.17983689904212952, 0.018000008538365364, 0.14123275876045227], "min" : [-0.18016313016414642, -0.010000014677643776, -0.2845871150493622], "name" : "POSITION"}, {"bufferView" : 1, "byteOffset" : 12, "componentType" : 5126, "count" : 251, "type" : "VEC2", "max" : [0.8852893114089966, 0.9618676900863647], "min" : [0.48338717222213745, 0.005496621131896973], "name" : "TEXCOORD_0"}, {"bufferView" : 1, "byteOffset" : 20, "componentType" : 5126, "count" : 251, "type" : "VEC3", "max" : [1.0000044107437134, 1.0000044107437134, 1.0000044107437134], "min" : [-1.0000044107437134, -1.0000044107437134, -0.9912323355674744], "name" : "NORMAL"}], "asset" : {"generator" : "Aspose.3D 24.1.0", "version" : "2.0"}, "buffers" : [{"uri" : "data:application/octet-stream;base64,", "byteLength" : 8984}], "bufferViews" : [{"buffer" : 0, "byteOffset" : 0, "byteLength" : 528, "target" : 34963}, {"buffer" : 0, "byteOffset" : 532, "byteLength" : 8448, "byteStride" : 32, "target" : 34962}], "meshes" : [{"primitives" : [{"attributes" : {"POSITION" : 1, "TEXCOORD_0" : 2, "NORMAL" : 3}, "indices" : 0, "mode" : 4}], "name" : ""}], "nodes" : [{"mesh" : 0, "name" : "Wall3_Part2_0"}], "scene" : 0, "scenes" : [{"nodes" : [0]}]}