{"accessors" : [{"bufferView" : 0, "byteOffset" : 0, "componentType" : 5123, "count" : 84, "type" : "SCALAR", "max" : [80], "min" : [0]}, {"bufferView" : 1, "byteOffset" : 0, "componentType" : 5126, "count" : 81, "type" : "VEC3", "max" : [0.08697963505983353, 0.010000038892030716, 0.10437007993459702], "min" : [-0.0764993280172348, -0.010000038892030716, -0.13628824055194855], "name" : "POSITION"}, {"bufferView" : 1, "byteOffset" : 12, "componentType" : 5126, "count" : 81, "type" : "VEC2", "max" : [0.8498778343200684, 0.36977672576904297], "min" : [0.4750039577484131, 0.013365983963012695], "name" : "TEXCOORD_0"}, {"bufferView" : 1, "byteOffset" : 20, "componentType" : 5126, "count" : 81, "type" : "VEC3", "max" : [0.9353821873664856, 1.0000044107437134, 0.9961791634559631], "min" : [-1.0000044107437134, -1.0000044107437134, -0.9660125970840454], "name" : "NORMAL"}], "asset" : {"generator" : "Aspose.3D 24.1.0", "version" : "2.0"}, "buffers" : [{"uri" : "data:application/octet-stream;base64,", "byteLength" : 2864}], "bufferViews" : [{"buffer" : 0, "byteOffset" : 0, "byteLength" : 168, "target" : 34963}, {"buffer" : 0, "byteOffset" : 172, "byteLength" : 2688, "byteStride" : 32, "target" : 34962}], "meshes" : [{"primitives" : [{"attributes" : {"POSITION" : 1, "TEXCOORD_0" : 2, "NORMAL" : 3}, "indices" : 0, "mode" : 4}], "name" : ""}], "nodes" : [{"mesh" : 0, "name" : "Wall4_Part2_0"}], "scene" : 0, "scenes" : [{"nodes" : [0]}]}