{"accessors" : [{"bufferView" : 0, "byteOffset" : 0, "componentType" : 5123, "count" : 147, "type" : "SCALAR", "max" : [139], "min" : [0]}, {"bufferView" : 1, "byteOffset" : 0, "componentType" : 5126, "count" : 140, "type" : "VEC3", "max" : [0.14997577667236328, 0.2420722097158432, 0.010000071488320827], "min" : [-0.05486295744776726, -0.23068057000637054, -0.017999961972236633], "name" : "POSITION"}, {"bufferView" : 1, "byteOffset" : 12, "componentType" : 5126, "count" : 140, "type" : "VEC2", "max" : [0.9558914303779602, 0.961219847202301], "min" : [0.3691243529319763, 0.004133939743041992], "name" : "TEXCOORD_0"}, {"bufferView" : 1, "byteOffset" : 20, "componentType" : 5126, "count" : 140, "type" : "VEC3", "max" : [1.0000044107437134, 0.9701481461524963, 1.0000044107437134], "min" : [-1.0000044107437134, -1.0000044107437134, -1.0000044107437134], "name" : "NORMAL"}], "asset" : {"generator" : "Aspose.3D 24.1.0", "version" : "2.0"}, "buffers" : [{"uri" : "data:application/octet-stream;base64,", "byteLength" : 5008}], "bufferViews" : [{"buffer" : 0, "byteOffset" : 0, "byteLength" : 296, "target" : 34963}, {"buffer" : 0, "byteOffset" : 300, "byteLength" : 4704, "byteStride" : 32, "target" : 34962}], "meshes" : [{"primitives" : [{"attributes" : {"POSITION" : 1, "TEXCOORD_0" : 2, "NORMAL" : 3}, "indices" : 0, "mode" : 4}], "name" : ""}], "nodes" : [{"mesh" : 0, "name" : "Wall2_Part2_0"}], "scene" : 0, "scenes" : [{"nodes" : [0]}]}