{"accessors" : [{"bufferView" : 0, "byteOffset" : 0, "componentType" : 5123, "count" : 156, "type" : "SCALAR", "max" : [146], "min" : [0]}, {"bufferView" : 1, "byteOffset" : 0, "componentType" : 5126, "count" : 147, "type" : "VEC3", "max" : [0.16760919988155365, 0.010000038892030716, 0.10117533802986145], "min" : [-0.1923908144235611, -0.010000038892030716, -0.30436450242996216], "name" : "POSITION"}, {"bufferView" : 1, "byteOffset" : 12, "componentType" : 5126, "count" : 147, "type" : "VEC2", "max" : [0.8518344759941101, 0.5154886245727539], "min" : [0.37424522638320923, 0.005467474460601807], "name" : "TEXCOORD_0"}, {"bufferView" : 1, "byteOffset" : 20, "componentType" : 5126, "count" : 147, "type" : "VEC3", "max" : [1.0000044107437134, 1.0000044107437134, 1.0000044107437134], "min" : [-1.0000044107437134, -1.0000044107437134, -0.9961791634559631], "name" : "NORMAL"}], "asset" : {"generator" : "Aspose.3D 24.1.0", "version" : "2.0"}, "buffers" : [{"uri" : "data:application/octet-stream;base64,", "byteLength" : 5312}], "bufferViews" : [{"buffer" : 0, "byteOffset" : 0, "byteLength" : 312, "target" : 34963}, {"buffer" : 0, "byteOffset" : 316, "byteLength" : 4992, "byteStride" : 32, "target" : 34962}], "meshes" : [{"primitives" : [{"attributes" : {"POSITION" : 1, "TEXCOORD_0" : 2, "NORMAL" : 3}, "indices" : 0, "mode" : 4}], "name" : ""}], "nodes" : [{"mesh" : 0, "name" : "Wall4_Part1_0"}], "scene" : 0, "scenes" : [{"nodes" : [0]}]}