{"accessors" : [{"bufferView" : 0, "byteOffset" : 0, "componentType" : 5123, "count" : 198, "type" : "SCALAR", "max" : [188], "min" : [0]}, {"bufferView" : 1, "byteOffset" : 0, "componentType" : 5126, "count" : 189, "type" : "VEC3", "max" : [0.17192767560482025, 0.18785709142684937, 0.009999998845160007], "min" : [-0.1880723536014557, -0.25909942388534546, -0.018000086769461632], "name" : "POSITION"}, {"bufferView" : 1, "byteOffset" : 12, "componentType" : 5126, "count" : 189, "type" : "VEC2", "max" : [0.9558915495872498, 0.961219847202301], "min" : [0.3572300970554352, 0.004133939743041992], "name" : "TEXCOORD_0"}, {"bufferView" : 1, "byteOffset" : 20, "componentType" : 5126, "count" : 189, "type" : "VEC3", "max" : [1.0000044107437134, 1.0000044107437134, 1.0000044107437134], "min" : [-1.0000044107437134, -0.9995846152305603, -1.0000044107437134], "name" : "NORMAL"}], "asset" : {"generator" : "Aspose.3D 24.1.0", "version" : "2.0"}, "buffers" : [{"uri" : "data:application/octet-stream;base64,", "byteLength" : 6740}], "bufferViews" : [{"buffer" : 0, "byteOffset" : 0, "byteLength" : 396, "target" : 34963}, {"buffer" : 0, "byteOffset" : 400, "byteLength" : 6336, "byteStride" : 32, "target" : 34962}], "meshes" : [{"primitives" : [{"attributes" : {"POSITION" : 1, "TEXCOORD_0" : 2, "NORMAL" : 3}, "indices" : 0, "mode" : 4}], "name" : ""}], "nodes" : [{"mesh" : 0, "name" : "Wall2_Part3_0"}], "scene" : 0, "scenes" : [{"nodes" : [0]}]}